<?xml version="1.0" standalone="no"?>
<!DOCTYPE svg PUBLIC "-//W3C//DTD SVG 20010904//EN"
 "http://www.w3.org/TR/2001/REC-SVG-20010904/DTD/svg10.dtd">
<svg version="1.0" xmlns="http://www.w3.org/2000/svg"
 width="1350.000000pt" height="540.000000pt" viewBox="0 0 1350.000000 540.000000"
 preserveAspectRatio="xMidYMid meet">
<metadata>
Created by potrace 1.10, written by Peter Selinger 2001-2011
</metadata>
<g transform="translate(0.000000,540.000000) scale(0.100000,-0.100000)"
fill="#36369f" stroke="none">
<path d="M3175 5064 c-192 -34 -209 -39 -340 -84 -431 -151 -804 -445 -1057
-836 -88 -135 -187 -347 -228 -489 -25 -85 -52 -197 -60 -255 -6 -36 -14 -90
-19 -120 -12 -72 -12 -409 0 -480 5 -30 13 -84 18 -120 20 -148 99 -389 181
-552 56 -110 58 -118 40 -128 -12 -6 -192 -10 -498 -10 l-480 0 -151 -148
c-83 -81 -151 -153 -151 -160 0 -9 172 -12 758 -12 417 0 761 3 765 6 3 3 -17
34 -44 67 -82 102 -162 225 -155 242 5 13 199 15 1753 13 1628 -3 1748 -4
1751 -20 4 -21 -34 -80 -125 -194 -40 -51 -73 -97 -73 -103 0 -8 1048 -11
3969 -11 l3968 0 54 62 c30 35 91 102 137 150 45 48 82 92 82 98 0 7 -1227 11
-3982 12 l-3983 3 -3 23 c-2 12 9 44 23 70 93 164 187 465 216 692 23 173 12
498 -22 655 -106 497 -337 882 -715 1196 -234 194 -480 316 -824 409 -204 55
-573 66 -805 24z m-358 -1340 c3 -9 -4 -41 -16 -72 -13 -32 -29 -73 -36 -92
-36 -94 -50 -120 -63 -120 -8 0 -39 11 -69 25 -29 14 -74 30 -101 35 -108 23
-151 28 -171 23 -21 -5 -21 -7 -21 -442 0 -467 7 -584 46 -716 32 -108 37
-105 -181 -105 -195 0 -214 5 -195 55 43 111 43 109 47 666 3 433 1 537 -9
541 -32 12 -290 -41 -364 -74 -68 -30 -77 -14 -48 89 9 32 22 81 29 109 7 28
18 60 24 72 l12 22 555 0 c499 0 555 -2 561 -16z m951 -7 c6 -28 -117 -267
-136 -267 -10 0 -31 8 -47 18 -59 36 -168 63 -241 60 l-69 -3 0 -205 0 -205
220 -5 220 -5 -3 -23 c-2 -12 -20 -48 -41 -80 -20 -31 -50 -78 -67 -104 -34
-56 -51 -63 -95 -45 -78 33 -140 48 -185 45 l-49 -3 -3 -210 c-2 -176 0 -212
12 -221 17 -12 142 -8 196 6 19 6 47 10 62 10 16 0 90 20 165 45 75 25 140 42
144 38 4 -5 -14 -55 -40 -113 -71 -159 -82 -178 -105 -184 -28 -8 -740 -8
-760 0 -18 7 -21 36 -5 65 39 75 58 276 59 654 1 391 -16 588 -61 697 -25 60
-39 58 413 56 386 -3 413 -4 416 -21z m608 -31 c13 -52 41 -95 216 -337 58
-80 116 -161 129 -180 13 -19 58 -81 99 -139 42 -58 103 -142 135 -187 32 -46
62 -83 67 -83 5 0 8 164 5 388 -3 367 -5 391 -26 462 -12 41 -23 86 -24 100
l-2 25 190 0 c163 0 190 -2 188 -15 -1 -8 -14 -57 -28 -109 l-26 -94 4 -581
c3 -320 8 -598 12 -620 5 -28 4 -41 -6 -47 -23 -14 -315 -11 -326 4 -5 6 -15
30 -21 53 -7 22 -31 69 -54 104 -24 35 -47 71 -53 80 -5 9 -40 56 -76 106
-220 300 -317 433 -340 469 -14 22 -33 46 -42 53 -14 12 -17 10 -23 -13 -4
-15 -4 -158 -1 -318 6 -293 14 -363 51 -471 26 -75 23 -76 -173 -76 -205 0
-207 1 -180 80 43 124 49 200 49 690 l0 466 -27 31 c-110 124 -157 188 -148
202 4 8 69 11 213 9 l206 -3 12 -49z"/>
<path d="M7430 3735 c-121 -21 -172 -39 -277 -98 -119 -67 -216 -172 -283
-305 -42 -83 -60 -163 -67 -293 -13 -255 94 -501 275 -632 279 -202 650 -204
918 -6 58 43 160 154 186 202 88 167 128 375 99 510 -5 23 -14 67 -21 98 -14
73 -69 186 -124 257 -123 159 -264 241 -466 272 -82 13 -146 11 -240 -5z m214
-221 c80 -28 131 -62 198 -132 105 -112 148 -222 155 -400 6 -151 -18 -239
-96 -345 -186 -252 -576 -205 -728 86 -58 109 -74 178 -74 309 0 139 18 219
67 293 93 141 199 202 355 204 46 1 94 -5 123 -15z"/>
<path d="M8573 3729 c-8 -8 -7 -25 4 -62 50 -177 52 -209 53 -667 0 -460 -1
-482 -51 -650 -10 -35 -15 -68 -11 -72 5 -5 94 -7 198 -6 162 3 188 5 185 18
-2 8 -13 47 -24 85 -31 110 -36 192 -36 630 0 422 5 507 34 610 9 33 19 72 22
88 l5 27 -170 0 c-94 0 -176 2 -184 5 -7 3 -19 0 -25 -6z"/>
<path d="M5775 3693 c3 -21 12 -51 20 -68 29 -69 35 -167 35 -608 0 -459 -6
-555 -41 -659 -32 -95 -44 -88 170 -88 105 0 192 4 195 9 3 5 -1 28 -10 52
-33 93 -44 180 -44 338 0 182 2 186 73 176 57 -9 205 19 274 51 61 28 135 92
170 148 42 65 57 132 57 246 1 87 -4 116 -23 169 -43 113 -173 221 -306 254
-22 6 -161 12 -309 14 l-268 4 7 -38z m439 -158 c70 -21 114 -59 144 -123 21
-46 25 -70 25 -146 0 -103 -12 -142 -63 -200 -53 -59 -176 -110 -207 -84 -10
8 -13 73 -13 283 0 149 3 275 7 278 11 11 55 8 107 -8z"/>
<path d="M9170 3721 c0 -11 154 -206 170 -216 7 -4 10 -164 10 -468 0 -477 -6
-567 -45 -678 -8 -23 -15 -52 -15 -65 l0 -24 180 0 c124 0 180 3 180 11 0 6
-9 41 -19 77 -37 130 -42 197 -39 502 2 183 7 295 13 295 9 0 34 -32 165 -215
36 -50 79 -108 95 -130 29 -37 176 -240 205 -283 8 -12 27 -37 43 -56 28 -33
67 -111 84 -166 l8 -30 165 0 c159 0 165 1 162 20 -25 174 -32 307 -32 684 0
442 7 536 46 661 13 41 24 78 24 83 0 4 -83 7 -185 7 -102 0 -185 -3 -185 -7
0 -5 12 -46 26 -93 26 -84 27 -91 31 -470 6 -446 5 -450 -63 -354 -21 30 -50
70 -64 89 -14 19 -54 75 -90 126 -36 50 -92 128 -124 173 -261 357 -317 443
-331 509 l-5 27 -205 0 c-119 0 -205 -4 -205 -9z"/>
<path d="M10801 3708 c-22 -55 -71 -262 -64 -269 5 -5 27 0 48 10 72 33 87 38
253 70 70 14 115 14 130 -1 9 -9 12 -137 12 -515 0 -468 -1 -508 -20 -576 -10
-41 -24 -86 -30 -101 -21 -58 -26 -56 179 -56 119 0 192 4 196 10 4 6 0 32 -8
58 -47 156 -48 170 -45 692 l3 495 40 3 c53 5 188 -25 249 -54 67 -32 83 -31
95 9 5 17 19 57 31 87 12 30 24 65 27 78 3 12 9 25 14 28 5 3 9 16 9 30 l0 24
-555 0 -555 0 -9 -22z"/>
<path d="M2000 1650 c0 -6 19 -28 42 -49 81 -76 141 -71 -880 -71 l-909 0 -35
-27 c-37 -30 -108 -107 -108 -117 0 -3 487 -6 1083 -6 l1082 1 -35 32 c-19 18
-52 46 -73 63 -26 21 -36 36 -31 47 6 16 108 17 1375 17 1318 0 1369 -1 1369
-18 0 -10 -23 -37 -52 -61 -28 -23 -58 -51 -65 -61 -14 -20 15 -20 3985 -20
l3998 0 57 59 c31 32 57 66 57 75 0 15 -324 16 -3957 18 -3624 3 -3958 4
-3961 19 -2 9 13 32 33 52 19 19 35 40 35 46 0 8 -417 11 -1505 11 -1035 0
-1505 -3 -1505 -10z"/>
<path d="M2340 1361 c0 -12 18 -26 110 -81 169 -103 436 -211 593 -239 32 -6
62 -13 67 -16 5 -3 44 -10 87 -16 436 -58 825 1 1206 184 134 64 277 151 277
168 0 5 -474 9 -1170 9 -665 0 -1170 -4 -1170 -9z"/>
<path d="M773 984 c-10 -4 -13 -68 -13 -269 0 -240 2 -263 17 -270 26 -9 462
-4 505 6 21 5 50 20 65 33 27 23 28 29 28 109 0 75 -3 88 -22 109 -27 28 -28
45 -8 72 18 23 20 100 4 144 -22 64 -37 67 -314 69 -137 1 -256 0 -262 -3z
m492 -75 c9 -8 18 -34 21 -57 4 -35 1 -46 -19 -66 -20 -20 -37 -25 -108 -29
-126 -8 -279 -6 -306 4 -21 8 -23 14 -23 83 0 50 4 76 13 80 6 3 101 4 209 3
164 -2 200 -5 213 -18z m19 -240 c24 -19 27 -27 24 -73 -3 -48 -5 -52 -43 -71
-34 -17 -64 -20 -213 -23 -96 -2 -185 -1 -198 2 -23 6 -24 10 -24 90 0 58 4
86 13 89 6 3 103 6 213 6 190 1 203 0 228 -20z"/>
<path d="M1977 984 c-12 -12 -8 -41 9 -54 22 -19 54 12 38 38 -12 19 -36 27
-47 16z"/>
<path d="M2096 975 c-9 -25 -7 -508 3 -523 5 -8 17 -12 27 -10 18 3 19 17 19
273 0 268 0 270 -21 273 -13 2 -24 -4 -28 -13z"/>
<path d="M2654 979 c-3 -6 -6 -44 -6 -85 0 -90 -8 -99 -68 -78 -33 12 -71 15
-146 12 -172 -8 -214 -45 -214 -193 0 -90 17 -135 63 -169 24 -18 46 -22 149
-25 76 -2 136 1 161 9 31 9 45 9 63 -1 19 -10 26 -9 39 1 13 11 15 50 15 264
0 254 -3 276 -36 276 -7 0 -16 -5 -20 -11z m-52 -220 c63 -34 63 -205 0 -247
-33 -22 -233 -25 -270 -4 -63 36 -69 192 -10 245 17 14 40 17 140 17 66 0 128
-5 140 -11z"/>
<path d="M4610 980 c-65 -16 -97 -92 -66 -157 l16 -35 -50 -47 -50 -47 0 -75
c0 -86 19 -127 72 -156 29 -16 60 -18 248 -18 205 0 217 1 258 23 l43 23 45
-22 c32 -15 49 -18 56 -11 18 18 0 59 -32 72 -45 19 -55 37 -55 103 0 47 -4
62 -18 71 -15 9 -21 7 -32 -8 -8 -10 -12 -23 -9 -28 3 -5 3 -20 0 -34 -6 -23
-10 -25 -39 -18 -17 3 -47 16 -67 29 -19 12 -86 48 -148 81 -173 90 -207 129
-158 179 24 24 30 25 148 24 152 0 190 -11 199 -57 9 -43 22 -56 47 -47 29 9
35 34 19 81 -23 66 -53 76 -235 80 -86 2 -173 -1 -192 -6z m119 -297 c47 -25
122 -66 166 -89 129 -68 102 -94 -100 -94 -133 0 -230 17 -246 42 -32 50 -16
148 29 172 41 23 57 20 151 -31z"/>
<path d="M5405 979 c-3 -8 -4 -131 -3 -274 l3 -260 30 0 30 0 3 80 c4 139 -20
125 216 125 251 0 249 1 254 -114 4 -81 17 -102 52 -91 18 6 20 15 20 78 0 52
-6 82 -21 115 l-22 44 24 31 c30 41 39 145 16 199 -29 70 -39 72 -334 76 -217
4 -264 2 -268 -9z m490 -64 c70 -29 76 -153 8 -184 -34 -16 -405 -15 -421 1
-7 7 -12 43 -12 93 0 50 5 86 12 93 19 19 368 16 413 -3z"/>
<path d="M8443 973 c-5 -10 -8 -50 -7 -90 2 -83 -5 -91 -63 -66 -29 12 -64 14
-154 11 -132 -5 -167 -20 -195 -86 -21 -50 -20 -179 1 -223 31 -63 56 -74 185
-77 70 -3 136 1 167 9 42 10 55 10 68 -1 8 -7 22 -10 30 -6 13 5 15 41 13 273
-3 242 -5 268 -20 271 -9 2 -21 -5 -25 -15z m-46 -225 c47 -51 52 -180 8 -224
-45 -45 -262 -45 -305 1 -48 51 -48 168 1 217 27 28 29 28 151 28 116 0 126
-1 145 -22z"/>
<path d="M9102 978 c-9 -9 -12 -79 -12 -269 0 -253 0 -258 21 -264 12 -4 25
-3 30 2 5 5 8 123 7 274 -3 227 -5 264 -18 267 -9 1 -21 -3 -28 -10z"/>
<path d="M11145 977 c-3 -7 -4 -129 -3 -272 l3 -260 240 0 240 0 3 28 3 27
-195 0 c-107 0 -201 3 -210 6 -14 5 -16 35 -16 229 0 123 -3 230 -6 239 -7 19
-53 21 -59 3z"/>
<path d="M12532 973 c-6 -9 -7 -42 -5 -73 3 -33 1 -65 -6 -78 -11 -20 -13 -20
-56 -5 -62 21 -256 15 -301 -9 -65 -35 -94 -174 -57 -272 15 -40 26 -54 62
-73 39 -20 58 -23 159 -23 66 0 130 5 149 12 26 10 38 10 53 0 11 -6 26 -9 35
-6 13 5 15 41 15 263 0 187 -3 260 -12 269 -16 16 -25 15 -36 -5z m-34 -243
c21 -31 23 -44 20 -107 -5 -99 -25 -120 -124 -129 -91 -8 -172 2 -204 26 -24
18 -25 24 -25 115 0 91 1 97 25 116 22 17 39 19 155 16 l129 -2 24 -35z"/>
<path d="M11737 913 c-2 -4 -7 -25 -11 -45 -6 -35 -10 -38 -40 -38 -41 0 -64
-23 -46 -45 7 -8 27 -15 45 -15 41 0 44 -12 43 -150 -1 -154 24 -180 174 -180
75 0 80 2 113 33 33 31 41 55 37 115 -2 16 -8 22 -26 22 -20 0 -24 -6 -29 -46
-2 -25 -10 -51 -16 -57 -7 -7 -41 -12 -82 -11 -58 0 -73 4 -92 22 -20 21 -22
32 -22 135 l0 112 130 5 c113 4 130 7 133 22 5 28 -43 40 -137 35 -110 -6
-129 1 -133 50 -2 26 -8 39 -20 41 -9 2 -18 -1 -21 -5z"/>
<path d="M1458 816 c-10 -10 -13 -49 -12 -155 2 -159 10 -182 69 -207 48 -20
230 -19 269 1 36 19 45 19 68 -1 14 -14 20 -14 33 -4 13 11 15 40 13 189 l-3
176 -25 0 c-25 0 -25 -1 -31 -115 -7 -141 -13 -162 -49 -183 -37 -23 -163 -33
-217 -18 -63 17 -73 43 -73 194 0 101 -3 126 -15 131 -8 3 -20 -1 -27 -8z"/>
<path d="M1981 816 c-8 -9 -11 -69 -9 -192 3 -166 4 -179 22 -182 10 -2 22 2
27 10 14 21 11 352 -3 366 -15 15 -23 15 -37 -2z"/>
<path d="M2865 816 c-78 -29 -103 -90 -92 -223 6 -74 25 -109 78 -135 48 -25
284 -26 336 -1 40 19 68 70 51 91 -16 19 -32 14 -61 -17 -31 -36 -99 -47 -216
-37 -100 9 -142 45 -120 104 8 22 12 22 196 22 103 0 194 4 202 9 10 7 12 21
6 56 -16 113 -55 137 -225 142 -84 2 -126 -1 -155 -11z m289 -77 c30 -36 33
-56 9 -62 -27 -8 -270 -8 -298 -1 -32 8 -33 39 -3 71 20 22 29 23 144 23 l122
0 26 -31z"/>
<path d="M3440 823 c-8 -2 -25 -9 -37 -15 -18 -9 -29 -8 -48 2 -17 9 -29 10
-35 4 -7 -7 -9 -79 -8 -190 3 -171 4 -179 23 -179 19 0 20 8 25 125 5 128 8
138 43 178 18 20 30 22 112 22 104 0 118 -8 130 -73 8 -43 27 -56 51 -36 12
10 15 24 11 53 -7 51 -35 88 -78 103 -34 12 -160 16 -189 6z"/>
<path d="M3865 824 c-92 -13 -115 -35 -115 -108 1 -92 30 -105 230 -106 137 0
170 -11 170 -54 0 -50 -19 -59 -131 -63 -57 -2 -124 0 -149 4 -39 7 -48 13
-64 46 -14 29 -23 37 -40 35 -16 -2 -22 -11 -24 -38 -2 -29 3 -41 28 -65 l31
-30 181 0 180 0 23 29 c28 36 35 68 24 111 -18 63 -34 69 -202 76 -84 3 -160
9 -169 13 -37 17 -34 82 5 91 12 3 78 4 147 3 119 -3 125 -4 135 -26 11 -26
51 -40 67 -24 18 18 -6 65 -43 87 -28 16 -54 20 -144 21 -60 1 -123 0 -140 -2z"/>
<path d="M6200 824 c-52 -10 -81 -28 -102 -63 -19 -30 -23 -50 -23 -126 0 -76
4 -96 22 -126 34 -54 61 -62 209 -67 116 -3 137 -2 178 16 47 21 74 58 63 86
-10 25 -38 19 -66 -14 -23 -27 -34 -31 -92 -37 -163 -14 -254 18 -247 90 l3
32 203 3 202 2 0 53 c0 62 -25 109 -71 132 -32 17 -223 30 -279 19z m261 -83
c33 -34 36 -47 12 -59 -24 -13 -293 -13 -315 -1 -25 13 -22 35 7 64 23 24 30
25 145 25 121 0 122 0 151 -29z"/>
<path d="M6725 815 c-23 -13 -34 -14 -51 -5 -12 7 -30 10 -40 8 -18 -3 -19
-16 -22 -185 -2 -177 -2 -182 19 -188 11 -4 25 -3 29 2 5 4 10 68 12 141 3
132 3 134 31 158 26 22 37 24 127 24 97 0 98 0 124 -31 25 -29 26 -35 26 -160
0 -106 3 -131 15 -135 30 -12 46 15 39 67 -4 26 -3 83 1 125 6 67 11 82 35
106 27 27 32 28 129 28 96 0 100 -1 120 -26 19 -24 21 -41 21 -153 0 -133 6
-155 36 -149 17 3 19 16 22 157 l3 153 -35 33 c-42 39 -64 44 -182 42 -73 -2
-97 -7 -128 -25 l-38 -23 -37 22 c-49 29 -211 38 -256 14z"/>
<path d="M7555 815 c-72 -26 -95 -72 -95 -192 0 -78 18 -123 61 -154 29 -21
47 -24 156 -27 152 -5 180 0 229 42 l39 34 0 109 c0 122 -10 149 -68 180 -44
24 -264 30 -322 8z m302 -69 c27 -23 28 -28 28 -110 0 -80 -2 -87 -28 -113
-27 -27 -31 -28 -135 -28 -59 0 -120 3 -135 8 -42 11 -67 61 -67 131 0 50 4
64 31 97 l31 39 123 0 c117 0 126 -1 152 -24z"/>
<path d="M8640 811 c-19 -11 -43 -28 -53 -39 -25 -28 -40 -131 -28 -198 22
-117 45 -129 241 -129 169 0 203 9 225 62 8 20 12 39 9 44 -12 20 -50 8 -76
-23 l-27 -33 -126 0 -127 0 -29 33 c-32 35 -38 76 -13 86 9 3 98 6 199 6 150
0 185 3 195 15 13 15 12 20 -17 128 -3 11 -28 30 -56 43 -46 21 -66 24 -167
23 -92 0 -122 -4 -150 -18z m304 -71 c48 -58 19 -72 -150 -70 -144 2 -164 6
-164 33 0 11 10 31 22 44 20 22 29 23 144 23 l122 0 26 -30z"/>
<path d="M9335 821 c-67 -17 -95 -45 -113 -107 -31 -109 2 -223 73 -255 55
-26 280 -27 331 -3 57 27 85 87 47 101 -11 4 -25 -4 -45 -28 l-29 -34 -129 0
c-123 0 -130 1 -155 25 -20 19 -25 32 -23 60 l3 35 189 3 c104 1 195 7 201 12
8 7 10 25 4 61 -17 106 -56 130 -214 135 -60 2 -123 0 -140 -5z m255 -68 c16
-9 31 -26 34 -37 10 -40 -7 -44 -172 -43 -157 2 -157 2 -160 25 -2 15 5 33 19
48 21 23 29 24 137 24 89 0 120 -4 142 -17z"/>
<path d="M9766 815 c-14 -14 -16 -41 -14 -186 3 -174 8 -199 43 -185 12 4 15
27 15 119 0 187 16 207 159 207 86 0 91 -1 107 -25 9 -14 20 -40 23 -58 6 -26
12 -32 31 -32 23 0 25 4 24 46 -1 96 -56 133 -188 127 -44 -3 -95 -11 -113
-18 -28 -12 -34 -12 -51 3 -18 17 -21 17 -36 2z"/>
<path d="M10310 824 c-59 -11 -72 -16 -90 -34 -15 -15 -20 -33 -20 -72 1 -95
28 -108 232 -108 137 0 138 0 154 -26 28 -42 10 -76 -46 -87 -48 -9 -234 -3
-262 8 -9 4 -22 22 -28 41 -9 28 -17 34 -33 32 -27 -4 -34 -38 -17 -78 20 -49
60 -60 224 -60 203 0 236 16 236 114 0 33 -6 52 -24 73 -24 28 -25 28 -178 33
-93 4 -162 11 -175 18 -25 14 -29 41 -13 73 10 17 22 19 140 19 70 0 136 -3
145 -6 9 -4 21 -17 26 -30 6 -16 16 -24 33 -24 47 0 38 64 -14 94 -28 16 -55
20 -149 22 -64 1 -127 0 -141 -2z"/>
<path d="M10762 528 c-15 -15 -16 -74 -2 -83 16 -10 12 -37 -10 -60 -18 -19
-19 -24 -6 -34 8 -7 25 -9 41 -5 33 8 64 71 65 130 0 46 -14 64 -50 64 -14 0
-31 -5 -38 -12z"/>
<path d="M12687 526 c-17 -18 -10 -75 10 -83 26 -10 63 15 63 41 0 45 -44 71
-73 42z"/>
</g>
</svg>
